<svg width="40" height="40" viewBox="0 0 40 40" fill="none" xmlns="http://www.w3.org/2000/svg">
<path fill-rule="evenodd" clip-rule="evenodd" d="M14.0833 1.66663C14.0833 1.25241 13.7475 0.916626 13.3333 0.916626C12.9191 0.916626 12.5833 1.25241 12.5833 1.66663V4.24996H11.4H11.367H11.367C10.2748 4.24995 9.40935 4.24995 8.71173 4.30695C7.99835 4.36523 7.39472 4.48684 6.84355 4.76768C5.94978 5.22308 5.22312 5.94973 4.76772 6.8435C4.48688 7.39468 4.36527 7.9983 4.30699 8.71169C4.24999 9.40931 4.24999 10.2748 4.25 11.367V11.4L4.25 28.6V28.633C4.24999 29.7251 4.24999 30.5906 4.30699 31.2882C4.36527 32.0016 4.48688 32.6052 4.76772 33.1564C5.22312 34.0502 5.94978 34.7768 6.84355 35.2322C7.39472 35.5131 7.99835 35.6347 8.71173 35.693C9.40935 35.75 10.2748 35.75 11.367 35.75H11.4H28.6H28.633C29.7252 35.75 30.5906 35.75 31.2883 35.693C32.0017 35.6347 32.6053 35.5131 33.1565 35.2322C34.0502 34.7768 34.7769 34.0502 35.2323 33.1564C35.5131 32.6052 35.6347 32.0016 35.693 31.2882C35.75 30.5906 35.75 29.7251 35.75 28.633V28.6V11.4V11.3669C35.75 10.2748 35.75 9.40931 35.693 8.71169C35.6347 7.9983 35.5131 7.39468 35.2323 6.8435C34.7769 5.94973 34.0502 5.22308 33.1565 4.76768C32.6053 4.48684 32.0017 4.36523 31.2883 4.30695C30.5906 4.24995 29.7251 4.24995 28.633 4.24996H28.6H27.4167V1.66663C27.4167 1.25241 27.0809 0.916626 26.6667 0.916626C26.2525 0.916626 25.9167 1.25241 25.9167 1.66663V4.24996H20.75V1.66663C20.75 1.25241 20.4142 0.916626 20 0.916626C19.5858 0.916626 19.25 1.25241 19.25 1.66663V4.24996L14.0833 4.24996V1.66663ZM25.9167 5.74996L20.75 5.74996V8.33329C20.75 8.74751 20.4142 9.08329 20 9.08329C19.5858 9.08329 19.25 8.74751 19.25 8.33329V5.74996L14.0833 5.74996V8.33329C14.0833 8.74751 13.7475 9.08329 13.3333 9.08329C12.9191 9.08329 12.5833 8.74751 12.5833 8.33329V5.74996H11.4C10.2675 5.74996 9.46327 5.75054 8.83388 5.80196C8.21325 5.85267 7.829 5.94905 7.52453 6.10419C6.913 6.41578 6.41582 6.91296 6.10423 7.52449C5.94909 7.82896 5.85271 8.21321 5.80201 8.83384C5.75058 9.46322 5.75 10.2675 5.75 11.4L5.75 28.6C5.75 29.7324 5.75058 30.5367 5.80201 31.1661C5.85271 31.7867 5.94909 32.171 6.10423 32.4754C6.41582 33.087 6.913 33.5841 7.52453 33.8957C7.829 34.0509 8.21325 34.1472 8.83388 34.198C9.46326 34.2494 10.2675 34.25 11.4 34.25H28.6C29.7325 34.25 30.5367 34.2494 31.1661 34.198C31.7867 34.1472 32.171 34.0509 32.4755 33.8957C33.087 33.5841 33.5842 33.087 33.8958 32.4754C34.0509 32.171 34.1473 31.7867 34.198 31.1661C34.2494 30.5367 34.25 29.7324 34.25 28.6V11.4C34.25 10.2675 34.2494 9.46322 34.198 8.83384C34.1473 8.21321 34.0509 7.82896 33.8958 7.52449C33.5842 6.91296 33.087 6.41578 32.4755 6.10419C32.171 5.94905 31.7867 5.85267 31.1661 5.80196C30.5367 5.75054 29.7325 5.74996 28.6 5.74996H27.4167V8.33329C27.4167 8.74751 27.0809 9.08329 26.6667 9.08329C26.2525 9.08329 25.9167 8.74751 25.9167 8.33329V5.74996ZM10.9167 15C10.9167 14.5857 11.2525 14.25 11.6667 14.25L28.3333 14.25C28.7475 14.25 29.0833 14.5857 29.0833 15C29.0833 15.4142 28.7475 15.75 28.3333 15.75L11.6667 15.75C11.2525 15.75 10.9167 15.4142 10.9167 15ZM11.6667 20.9166C11.2525 20.9166 10.9167 21.2524 10.9167 21.6666C10.9167 22.0808 11.2525 22.4166 11.6667 22.4166L21.6667 22.4166C22.0809 22.4166 22.4167 22.0808 22.4167 21.6666C22.4167 21.2524 22.0809 20.9166 21.6667 20.9166L11.6667 20.9166ZM10.9167 28.3333C10.9167 27.9191 11.2525 27.5833 11.6667 27.5833H15C15.4142 27.5833 15.75 27.9191 15.75 28.3333C15.75 28.7475 15.4142 29.0833 15 29.0833H11.6667C11.2525 29.0833 10.9167 28.7475 10.9167 28.3333Z" fill="#161616"/>
</svg>
