<svg width="40" height="40" viewBox="0 0 40 40" fill="none" xmlns="http://www.w3.org/2000/svg">
<path fill-rule="evenodd" clip-rule="evenodd" d="M17.5833 11.6666C17.5833 8.49099 20.1577 5.91663 23.3333 5.91663C26.2548 5.91663 28.6673 8.09536 29.0348 10.9166H35C35.4142 10.9166 35.75 11.2524 35.75 11.6666C35.75 12.0808 35.4142 12.4166 35 12.4166H29.0348C28.6673 15.2379 26.2548 17.4166 23.3333 17.4166C20.1577 17.4166 17.5833 14.8423 17.5833 11.6666ZM23.3333 7.41663C20.9861 7.41663 19.0833 9.31942 19.0833 11.6666C19.0833 14.0138 20.9861 15.9166 23.3333 15.9166C25.6805 15.9166 27.5833 14.0138 27.5833 11.6666C27.5833 9.31942 25.6805 7.41663 23.3333 7.41663ZM3.33331 10.9166C2.9191 10.9166 2.58331 11.2524 2.58331 11.6666C2.58331 12.0808 2.9191 12.4166 3.33331 12.4166H13.3333C13.7475 12.4166 14.0833 12.0808 14.0833 11.6666C14.0833 11.2524 13.7475 10.9166 13.3333 10.9166H3.33331ZM3.33331 27.5833C2.9191 27.5833 2.58331 27.9191 2.58331 28.3333C2.58331 28.7475 2.9191 29.0833 3.33331 29.0833H9.29845C9.66596 31.9046 12.0785 34.0833 15 34.0833C18.1756 34.0833 20.75 31.5089 20.75 28.3333C20.75 25.1577 18.1756 22.5833 15 22.5833C12.0785 22.5833 9.66596 24.762 9.29845 27.5833H3.33331ZM10.75 28.3333C10.75 30.6805 12.6528 32.5833 15 32.5833C17.3472 32.5833 19.25 30.6805 19.25 28.3333C19.25 25.9861 17.3472 24.0833 15 24.0833C12.6528 24.0833 10.75 25.9861 10.75 28.3333ZM25 27.5833C24.5858 27.5833 24.25 27.9191 24.25 28.3333C24.25 28.7475 24.5858 29.0833 25 29.0833H35C35.4142 29.0833 35.75 28.7475 35.75 28.3333C35.75 27.9191 35.4142 27.5833 35 27.5833H25Z" fill="#161616"/>
</svg>
