<svg width="40" height="40" viewBox="0 0 40 40" fill="none" xmlns="http://www.w3.org/2000/svg">
<path fill-rule="evenodd" clip-rule="evenodd" d="M20 5.75C12.1299 5.75 5.75 12.1299 5.75 20C5.75 22.4844 6.6307 25.0113 7.49027 26.8758L7.49804 26.8926L7.49808 26.8927C7.78489 27.5148 8.01043 28.004 8.17051 28.3945C8.32971 28.7828 8.44952 29.1319 8.49153 29.4636C8.56377 30.0339 8.53312 30.4261 8.37313 30.9783C8.21157 31.536 7.8292 32.1091 7.26473 32.955L7.18233 33.0786L6.40139 34.25H20C27.8701 34.25 34.25 27.8701 34.25 20C34.25 12.1299 27.8701 5.75 20 5.75ZM4.25 20C4.25 11.3015 11.3015 4.25 20 4.25C28.6985 4.25 35.75 11.3015 35.75 20C35.75 28.6985 28.6985 35.75 20 35.75H5C4.7234 35.75 4.46926 35.5978 4.33875 35.3539C4.20823 35.11 4.22254 34.8141 4.37596 34.584L5.93426 32.2465C6.61217 31.2297 6.84421 30.8653 6.93238 30.5609C7.0354 30.2053 7.04994 30.0194 7.00342 29.6521C6.98729 29.5248 6.93134 29.3262 6.78262 28.9634C6.63622 28.6064 6.42433 28.1464 6.12808 27.5038C5.23161 25.5593 4.25 22.8009 4.25 20ZM12.5833 16.6667C12.5833 16.2525 12.9191 15.9167 13.3333 15.9167H26.6667C27.0809 15.9167 27.4167 16.2525 27.4167 16.6667C27.4167 17.0809 27.0809 17.4167 26.6667 17.4167H13.3333C12.9191 17.4167 12.5833 17.0809 12.5833 16.6667ZM13.3333 22.5833C12.9191 22.5833 12.5833 22.9191 12.5833 23.3333C12.5833 23.7475 12.9191 24.0833 13.3333 24.0833H20C20.4142 24.0833 20.75 23.7475 20.75 23.3333C20.75 22.9191 20.4142 22.5833 20 22.5833H13.3333Z" fill="#161616"/>
</svg>
