<svg width="40" height="40" viewBox="0 0 40 40" fill="none" xmlns="http://www.w3.org/2000/svg">
<path fill-rule="evenodd" clip-rule="evenodd" d="M25.2347 2.58327L25.3201 2.58328L32.5986 2.58328L32.6275 2.58328C33.0228 2.58327 33.3639 2.58326 33.6448 2.60621C33.9413 2.63044 34.2363 2.68392 34.52 2.82852C34.9434 3.04423 35.2876 3.38844 35.5033 3.8118C35.6479 4.09559 35.7014 4.3905 35.7256 4.68701C35.7486 4.96781 35.7486 5.3087 35.7486 5.70384V5.70392V5.704V5.70408V5.70436V5.73328V13.0117L35.7486 13.0972C35.7488 13.7487 35.7489 14.1998 35.645 14.6327C35.5531 15.0154 35.4016 15.3812 35.196 15.7167C34.9633 16.0963 34.6443 16.4152 34.1835 16.8757L34.123 16.9362L27.645 23.4141L29.0797 25.4214L29.0966 25.445L29.0966 25.445L29.0966 25.4451C29.5024 26.0128 29.8313 26.4729 30.072 26.8699C30.3209 27.2804 30.5047 27.669 30.592 28.1024C30.7317 28.7961 30.6723 29.5152 30.4206 30.1765C30.2634 30.5897 30.0183 30.9429 29.7054 31.307C29.4029 31.6591 29.0029 32.059 28.5095 32.5525L28.4889 32.573L25.5317 35.5302C25.3758 35.6861 25.1592 35.7655 24.9395 35.7474C24.7198 35.7292 24.5192 35.6152 24.3911 35.4358L20.7378 30.3213L20.2916 30.7675L20.2702 30.789C19.8925 31.1667 19.5772 31.482 19.2986 31.7186C19.008 31.9652 18.7084 32.17 18.3484 32.2869C17.796 32.4664 17.2011 32.4664 16.6488 32.2869C16.2888 32.17 15.9891 31.9652 15.6986 31.7186C15.42 31.4821 15.1047 31.1668 14.727 30.7891L14.727 30.7891L14.7055 30.7675L7.56431 23.6264L7.54274 23.6048C7.16505 23.2271 6.8498 22.9119 6.6133 22.6333C6.36663 22.3427 6.16189 22.0431 6.04492 21.6831C5.86546 21.1308 5.86546 20.5358 6.04492 19.9835C6.16189 19.6235 6.36663 19.3239 6.6133 19.0333C6.84981 18.7547 7.16507 18.4394 7.54278 18.0617L7.56431 18.0402L8.00975 17.5948L2.8982 13.9435C2.7188 13.8154 2.60487 13.6148 2.58669 13.3951C2.56851 13.1754 2.64792 12.9588 2.80382 12.8029L5.76125 9.84555L5.78179 9.825C6.27521 9.33159 6.67515 8.93166 7.0272 8.62912C7.39128 8.31625 7.74443 8.07122 8.15758 7.914C8.81891 7.66233 9.53795 7.60291 10.2316 7.7426C10.665 7.82986 11.0535 8.01359 11.4641 8.26245C11.861 8.50307 12.3211 8.83189 12.8887 9.23756L12.8888 9.23761L12.8888 9.23762L12.8889 9.23764L12.8889 9.23766L12.9125 9.25455L14.9173 10.6872L21.3957 4.20884L21.4561 4.14839C21.9167 3.68754 22.2355 3.36854 22.6152 3.13588C22.9507 2.93028 23.3165 2.77876 23.6991 2.6869C24.1321 2.58295 24.5831 2.58308 25.2347 2.58327ZM9.08504 16.5195L12.9499 12.6546L13.8418 11.7623L12.0404 10.475C11.4434 10.0483 11.0292 9.75292 10.6864 9.54515C10.3518 9.34227 10.1317 9.25259 9.9355 9.21308C9.5193 9.12927 9.08787 9.16492 8.69108 9.31592C8.50403 9.3871 8.30165 9.5117 8.00483 9.76677C7.70086 10.028 7.34072 10.3874 6.82189 10.9062L4.4905 13.2375L9.08504 16.5195ZM8.62497 19.1009L9.66113 18.0647C9.67371 18.0537 9.68599 18.0422 9.69795 18.0302L14.0103 13.7155L22.4563 5.2695C23.0004 4.7254 23.1895 4.5432 23.3989 4.41484C23.6002 4.29148 23.8197 4.20057 24.0493 4.14545C24.2882 4.0881 24.5506 4.08328 25.3201 4.08328L32.5986 4.08328C33.031 4.08328 33.3102 4.08387 33.5227 4.10123C33.7264 4.11787 33.802 4.14613 33.8391 4.16503C33.9802 4.23693 34.0949 4.35167 34.1668 4.49279C34.1857 4.52987 34.214 4.60541 34.2306 4.80916C34.248 5.02166 34.2486 5.30087 34.2486 5.73328V13.0117C34.2486 13.7812 34.2437 14.0437 34.1864 14.2826C34.1313 14.5121 34.0404 14.7316 33.917 14.9329C33.7886 15.1424 33.6064 15.3314 33.0623 15.8755L19.231 29.7069C18.8262 30.1116 18.5541 30.3829 18.3278 30.575C18.1082 30.7615 17.9815 30.8289 17.8848 30.8603C17.6338 30.9419 17.3633 30.9419 17.1123 30.8603C17.0156 30.8289 16.8889 30.7615 16.6693 30.575C16.443 30.3829 16.1709 30.1117 15.7662 29.7069L12.7265 26.6673L15.5301 23.8637C15.8229 23.5708 15.8229 23.096 15.5301 22.8031C15.2372 22.5102 14.7623 22.5102 14.4694 22.8031L11.6659 25.6066L8.62497 22.5657C8.2202 22.1609 7.94893 21.8888 7.75681 21.6625C7.57037 21.4429 7.50291 21.3162 7.4715 21.2196C7.38993 20.9685 7.38993 20.6981 7.4715 20.447C7.50291 20.3504 7.57037 20.2237 7.75681 20.004C7.94893 19.7777 8.2202 19.5056 8.62497 19.1009ZM25.0971 33.8435L21.8142 29.2475L26.57 24.4896L27.8594 26.2936C28.286 26.8906 28.5815 27.3048 28.7893 27.6476C28.9923 27.9823 29.082 28.2023 29.1215 28.3986C29.2053 28.8148 29.1697 29.2462 29.0187 29.6431C28.9475 29.8301 28.8229 30.0325 28.5678 30.3294C28.3066 30.6334 27.9471 30.9935 27.4282 31.5124L25.0971 33.8435ZM20.7541 14.9992C20.7541 13.5724 21.9107 12.4158 23.3374 12.4158C24.7641 12.4158 25.9207 13.5724 25.9207 14.9992C25.9207 16.4259 24.7641 17.5825 23.3374 17.5825C21.9107 17.5825 20.7541 16.4259 20.7541 14.9992ZM23.3374 10.9158C21.0822 10.9158 19.2541 12.744 19.2541 14.9992C19.2541 17.2543 21.0822 19.0825 23.3374 19.0825C25.5926 19.0825 27.4207 17.2543 27.4207 14.9992C27.4207 12.744 25.5926 10.9158 23.3374 10.9158Z" fill="#161616"/>
</svg>
