<svg width="62" height="62" viewBox="0 0 62 62" fill="none" xmlns="http://www.w3.org/2000/svg">
<path d="M58.6244 36.7177C60.8289 32.9977 62 28.7266 62 24.3866C62 11.0911 51.1844 0.275513 37.8889 0.275513C24.5933 0.275513 13.7778 11.0911 13.7778 24.3866C13.7778 25.8333 13.9156 27.28 14.1911 28.7266C6.2 29.8288 0 36.7866 0 45.0533C0 47.9466 0.757778 50.84 2.20444 53.32L0.344444 59.9333C0.206667 60.4155 0.344444 60.9666 0.688889 61.3111C0.964445 61.5866 1.30889 61.7244 1.65333 61.7244C1.79111 61.7244 1.92889 61.7244 2.06667 61.6555L8.88667 59.6577C11.2289 60.8977 13.9156 61.5866 16.6022 61.5866C24.7311 61.5866 31.5511 55.6622 32.86 47.9466C34.5133 48.2911 36.1667 48.4977 37.9578 48.4977C41.9533 48.4977 45.9489 47.4644 49.4622 45.6044L59.9333 48.6355C60.0711 48.7044 60.2089 48.7044 60.3467 48.7044C60.6911 48.7044 61.0356 48.5666 61.3111 48.2911C61.6556 47.9466 61.7933 47.3955 61.6556 46.9133L58.6244 36.7177ZM16.5333 58.8311C14.1222 58.8311 11.78 58.2111 9.64444 57.04C9.43778 56.9022 9.23111 56.8333 8.95556 56.8333C8.81778 56.8333 8.68 56.8333 8.54222 56.9022L3.58222 58.3488L4.96 53.5955C5.09778 53.2511 5.02889 52.8377 4.82222 52.4933C3.44444 50.2888 2.68667 47.74 2.68667 45.1222C2.68667 38.0955 7.99111 32.3088 14.7422 31.4822C17.0156 38.9222 22.7333 44.7777 30.0356 47.2577C29.0711 53.8022 23.4222 58.8311 16.5333 58.8311ZM49.6 42.78C49.2556 42.6422 48.8422 42.7111 48.5667 42.9177C45.3289 44.7777 41.6778 45.7422 37.9578 45.7422C26.1778 45.7422 16.6022 36.1666 16.6022 24.3866C16.6022 12.6066 26.1778 3.03107 37.9578 3.03107C49.7378 3.03107 59.3133 12.6066 59.3133 24.3866C59.3133 28.4511 58.1422 32.3777 56.0067 35.8222C55.8 36.1666 55.7311 36.58 55.8689 36.9244L58.28 45.26L49.6 42.78ZM46.7756 18.5311C47.2578 22.94 44.5711 26.9355 40.3 28.1755C39.68 28.3822 39.2667 28.8644 39.2667 29.4844V31.2066C39.2667 31.9644 38.6467 32.5844 37.8889 32.5844C37.1311 32.5844 36.5111 31.9644 36.5111 31.2066V29.4844C36.5111 29.3466 36.5111 29.2777 36.5111 29.14C36.6489 27.4177 37.82 25.9711 39.5422 25.4888C42.4356 24.6622 44.3644 21.8377 44.02 18.8066C43.6756 15.9822 41.4022 13.64 38.5778 13.3644C36.7867 13.1577 35.0644 13.7088 33.7556 14.88C32.4467 16.0511 31.6889 17.7733 31.6889 19.4955C31.6889 19.9777 31.4133 20.3911 31.0689 20.6666C30.8622 20.8044 30.5867 20.8733 30.3111 20.8733C29.5533 20.8733 28.9333 20.2533 28.9333 19.4955C28.9333 16.9466 30.0356 14.5355 31.8956 12.8133C33.8244 11.0911 36.3733 10.3333 38.8533 10.6088C42.9867 11.0911 46.3622 14.4666 46.7756 18.5311ZM38.8533 35.8222C39.1289 36.0977 39.2667 36.4422 39.2667 36.7866C39.2667 37.1311 39.1289 37.4755 38.8533 37.7511C38.5778 38.0266 38.2333 38.1644 37.8889 38.1644C37.5444 38.1644 37.2 38.0266 36.9244 37.7511C36.6489 37.4755 36.5111 37.1311 36.5111 36.7866C36.5111 36.4422 36.6489 36.0977 36.9244 35.8222C37.4067 35.2711 38.3711 35.2711 38.8533 35.8222Z" fill="white"/>
</svg>
